<svg width="40" height="40" viewBox="0 0 40 40" fill="none" xmlns="http://www.w3.org/2000/svg">
<path d="M39.9876 17.6783V17.678C39.9223 17.0548 39.5995 16.4805 39.102 16.0999L36.8254 14.3275L37.6811 11.504C37.8636 10.9015 37.7879 10.2433 37.4733 9.69761C37.1583 9.15226 36.6261 8.75767 36.013 8.61424L33.1489 7.94559L32.7833 5.02749C32.7049 4.40249 32.368 3.83181 31.8589 3.46255C31.3493 3.09176 30.702 2.94741 30.084 3.06643L27.1955 3.62032L25.6742 1.10292C25.0688 0.101024 23.7974 -0.277395 22.7177 0.221874C22.6417 0.25697 22.5685 0.299084 22.5047 0.34425L19.9976 2.09047L17.584 0.409253C17.0673 0.0497546 16.4182 -0.0811662 15.8024 0.0494494C15.1865 0.180065 14.6464 0.564588 14.3207 1.10353L12.8001 3.62063L9.91125 3.06643C9.29265 2.94802 8.64598 3.09237 8.13725 3.46224C7.62761 3.83242 7.29069 4.4031 7.21257 5.02749L6.84697 7.9459L3.81778 8.65299L3.67557 8.69938L3.62308 8.72227C2.52261 9.20353 1.97207 10.3736 2.31448 11.504L3.16989 14.3275L0.795617 16.1744L0.657983 16.294L0.619225 16.3364C-0.177591 17.2068 -0.208719 18.5233 0.545067 19.4035L2.4039 21.6264L0.897241 24.3604L0.837121 24.4972L0.819726 24.5481C0.444054 25.6709 0.955835 26.891 2.00992 27.3857L4.67228 28.6351L4.42295 31.5654C4.36954 32.1931 4.58072 32.8215 5.00187 33.289C5.42301 33.7568 6.02574 34.0324 6.65562 34.0452L9.596 34.1038L10.5604 36.8819C10.7667 37.4769 11.215 37.9652 11.7899 38.221C12.3649 38.477 13.0274 38.4837 13.6085 38.2393L16.3187 37.097L18.4461 39.3672L18.5575 39.4664L18.6005 39.4984C19.0208 39.8088 19.5118 39.9608 19.9983 39.9608C20.6138 39.9608 21.2217 39.7173 21.6664 39.2427L23.6775 37.097L26.388 38.2396C26.9679 38.4837 27.6301 38.477 28.2051 38.2213C28.7806 37.9652 29.2289 37.4769 29.4352 36.8822L30.3999 34.1038L33.5103 34.0419L33.658 34.0257L33.7111 34.015C34.8707 33.7785 35.6712 32.7253 35.5726 31.5657L35.3236 28.6351L37.9863 27.3857C38.5561 27.1183 38.9946 26.6215 39.1893 26.0224C39.3837 25.4237 39.3211 24.7639 39.0172 24.2124L37.592 21.6264L39.4511 19.4035C39.8573 18.9289 40.0529 18.3009 39.9876 17.6783ZM20.1222 29.9434C14.6299 29.9434 10.1615 25.475 10.1615 19.9827C10.1615 14.4901 14.6299 10.022 20.1222 10.022C25.6147 10.022 30.0831 14.4901 30.0831 19.9827C30.0831 25.475 25.6144 29.9434 20.1222 29.9434Z" fill="#333333"/>
<path d="M20.1222 12.3672C15.9233 12.3672 12.5068 15.7833 12.5068 19.9826C12.5068 24.1815 15.9233 27.5976 20.1222 27.5976C24.3215 27.5976 27.7376 24.1815 27.7376 19.9826C27.7376 15.7833 24.3215 12.3672 20.1222 12.3672ZM24.6437 18.5482L19.1878 24.0039C18.9589 24.2331 18.6589 24.3475 18.3586 24.3475C18.0586 24.3475 17.7583 24.2331 17.5294 24.0039L15.4448 21.9192C14.9867 21.4612 14.9867 20.7187 15.4448 20.2606C15.9025 19.8028 16.645 19.8028 17.1031 20.2606L18.3589 21.5164L22.9854 16.8899C23.4432 16.4318 24.186 16.4318 24.6437 16.8899C25.1018 17.3477 25.1018 18.0902 24.6437 18.5482Z" fill="#333333"/>
</svg>
