<svg width="37" height="35" viewBox="0 0 37 35" fill="none" xmlns="http://www.w3.org/2000/svg">
<path d="M6.85749 12.6665H2.05745C1.39476 12.6665 0.857422 13.2038 0.857422 13.8665V33.0664C0.857422 33.7291 1.39468 34.2664 2.05745 34.2664H6.85741C7.5201 34.2664 8.05744 33.7291 8.05744 33.0664V13.8665C8.05744 13.2038 7.52026 12.6665 6.85749 12.6665Z" fill="#333333"/>
<path d="M36.8335 15.8474C36.6218 13.9859 34.8829 12.6665 33.0094 12.6665H23.6539C24.449 11.2428 24.8758 7.21613 24.8568 5.57122C24.8255 2.84843 22.5706 0.666504 19.8478 0.666504H18.8576C18.1943 0.666504 17.6575 1.2032 17.6575 1.86653C17.6575 4.64145 16.577 9.65012 14.5392 11.688C13.1676 13.0596 11.995 13.5566 10.4575 14.325V32.3309C12.8115 33.1155 15.8003 34.2664 20.3559 34.2664H28.2057C30.7921 34.2664 32.8066 31.8709 31.8043 29.3399C33.3313 28.924 34.4574 27.5235 34.4574 25.8665C34.4574 25.3988 34.3672 24.9512 34.2043 24.5399C36.7775 23.8388 37.7247 20.6615 35.9387 18.6665C36.5948 17.9334 36.9567 16.9308 36.8335 15.8474Z" fill="#333333"/>
</svg>
