<svg width="37" height="40" viewBox="0 0 37 40" fill="none" xmlns="http://www.w3.org/2000/svg">
<path d="M16.2217 25.4568C14.6713 24.841 12.9139 25.057 11.559 26.0299C10.2042 27.0026 9.4378 28.5988 9.52578 30.2647L9.76752 34.8505C9.83385 36.1066 10.7149 37.1711 11.936 37.4713C13.1579 37.7709 14.4318 37.2353 15.0723 36.1521L15.0725 36.1511C16.1528 34.324 17.9498 33.0336 20.0273 32.5943C21.2578 32.334 22.1727 31.2985 22.2795 30.0448C22.3859 28.7915 21.6586 27.6161 20.4897 27.1517L16.2217 25.4568Z" fill="#333333"/>
<path d="M7.68682 31.126C8.3569 30.106 7.9283 28.6415 6.73073 27.8559C5.53305 27.0706 4.01888 27.2603 3.35022 28.2802C2.68084 29.2997 3.10987 30.7635 4.30685 31.5499C5.50448 32.3347 7.01894 32.1452 7.68682 31.126Z" fill="#333333"/>
<path d="M9.90951 26.55C11.1149 25.6845 11.2683 23.8348 10.2522 22.4196C9.23564 21.0038 7.43397 20.558 6.22857 21.4235C5.02349 22.2888 4.86998 24.1384 5.88657 25.5542C6.9027 26.9694 8.70443 27.4152 9.90951 26.55Z" fill="#333333"/>
<path d="M14.5269 24.3894C15.9437 23.9482 16.6727 22.241 16.1549 20.5775C15.6371 18.9135 14.0675 17.9224 12.6514 18.3632C11.2346 18.8045 10.5056 20.5117 11.0239 22.1752C11.5419 23.839 13.1108 24.8302 14.5269 24.3894Z" fill="#333333"/>
<path d="M19.4347 20.2813C18.2145 20.2647 17.2088 21.411 17.1879 22.8436C17.1681 24.2759 18.1405 25.4511 19.3591 25.4688C20.5777 25.487 21.5847 24.3394 21.6061 22.9067C21.6259 21.4745 20.6531 20.2992 19.4347 20.2813Z" fill="#333333"/>
<path d="M28.0201 11.8704C27.5305 10.3326 26.2916 9.1498 24.733 8.73218C23.1746 8.3146 21.5103 8.71943 20.3175 9.80648L17.0337 12.7984C16.1344 13.618 15.8778 14.9299 16.4016 16.0277C16.9265 17.1258 18.1082 17.7509 19.3114 17.5662L19.3123 17.5657C21.3419 17.2542 23.4091 17.8081 25.0114 19.0935C25.9604 19.8549 27.2962 19.9048 28.2999 19.2162C29.3031 18.5276 29.7369 17.2628 29.3678 16.1034L28.0201 11.8704Z" fill="#333333"/>
<path d="M18.5454 8.95852C19.7195 8.83471 20.5527 7.61627 20.4066 6.23844C20.2601 4.8608 19.19 3.84392 18.0168 3.96869C16.8435 4.09268 16.0111 5.31104 16.1563 6.6889C16.3031 8.06622 17.3732 9.08347 18.5454 8.95852Z" fill="#333333"/>
<path d="M23.3325 7.817C24.7191 8.18855 26.1974 7.16953 26.6336 5.5416C27.07 3.91299 26.2993 2.29138 24.9127 1.91984C23.5264 1.5484 22.0481 2.56732 21.6117 4.19598C21.1755 5.82391 21.9463 7.44556 23.3325 7.817Z" fill="#333333"/>
<path d="M27.7798 9.94778C28.9785 10.7376 30.703 10.2367 31.6305 8.82943C32.5584 7.42202 32.338 5.63985 31.1401 4.85025C29.9413 4.06042 28.2168 4.56132 27.2896 5.96896C26.362 7.37649 26.5819 9.15819 27.7798 9.94778Z" fill="#333333"/>
<path d="M33.8625 11.1025C33.127 10.1793 31.6526 10.1292 30.5677 10.9918C29.4837 11.855 29.2003 13.3031 29.934 14.2259C30.6674 15.149 32.1435 15.1991 33.2288 14.3369C34.3128 13.4738 34.596 12.0253 33.8625 11.1025Z" fill="#333333"/>
</svg>
