<svg width="40" height="40" viewBox="0 0 40 40" fill="none" xmlns="http://www.w3.org/2000/svg">
<path d="M26.7108 4.57646C20.6088 -1.52549 10.6774 -1.52549 4.57547 4.57646C-1.52516 10.6797 -1.52516 20.6098 4.57547 26.7131C10.0094 32.1457 18.4725 32.7277 24.5705 28.4856C24.6988 29.0927 24.9925 29.6721 25.4647 30.1443L34.3511 39.0307C35.6461 40.3231 37.7387 40.3231 39.0271 39.0307C40.3208 37.7371 40.3208 35.6444 39.0271 34.3547L30.1407 25.4657C29.6711 24.9974 29.0904 24.7025 28.4833 24.5742C32.7281 18.4748 32.146 10.0131 26.7108 4.57646ZM23.9052 23.9075C19.3495 28.4631 11.9354 28.4631 7.38107 23.9075C2.82809 19.3518 2.82809 11.939 7.38107 7.38339C11.9354 2.82908 19.3495 2.82908 23.9052 7.38339C28.4608 11.939 28.4608 19.3518 23.9052 23.9075Z" fill="#333333"/>
</svg>
