<svg width="23" height="40" viewBox="0 0 23 40" fill="none" xmlns="http://www.w3.org/2000/svg">
<path d="M19.7405 0H2.91087C1.3002 0 0 1.30603 0 2.91378V37.0891C0 38.6954 1.3002 40 2.91087 40H19.7405C21.3483 40 22.6514 38.6954 22.6514 37.0891V2.91378C22.6514 1.30603 21.3483 0 19.7405 0ZM7.17295 1.76955H15.4814C15.6913 1.76955 15.8618 2.08294 15.8618 2.47067C15.8618 2.85839 15.6913 3.17324 15.4814 3.17324H7.17295C6.96159 3.17324 6.79397 2.85839 6.79397 2.47067C6.79397 2.08294 6.96159 1.76955 7.17295 1.76955ZM11.3272 37.1241C10.3025 37.1241 9.4687 36.2904 9.4687 35.2642C9.4687 34.238 10.3025 33.4072 11.3272 33.4072C12.349 33.4072 13.1827 34.238 13.1827 35.2642C13.1827 36.2904 12.349 37.1241 11.3272 37.1241ZM20.4708 30.7558H2.18206V4.91655H20.4708V30.7558Z" fill="#333333"/>
</svg>
