<svg width="24" height="22" viewBox="0 0 24 22" fill="none" xmlns="http://www.w3.org/2000/svg">
<path d="M1.98113 4.01887C0.849057 4.01887 0 3.16981 0 2.03774C0 0.90566 0.849057 0 1.98113 0H21.9623C23.0943 0 24 0.90566 24 2.03774C24 3.16981 23.0943 4.01887 21.9623 4.01887H1.98113Z" fill="#333333"/>
<path d="M21.9623 8.94336C23.0943 8.94336 24 9.84902 24 10.9811C24 12.1132 23.0943 12.9622 21.9623 12.9622H1.98113C0.849057 12.9622 0 12.1132 0 10.9811C0 9.84902 0.849057 8.94336 1.98113 8.94336H21.9623Z" fill="#333333"/>
<path d="M21.9623 17.9434C23.0943 17.9434 24 18.7924 24 19.9245C24 21.0566 23.0943 21.9622 21.9623 21.9622H1.98113C0.849057 21.9622 0 21.0566 0 19.9245C0 18.7924 0.849057 17.9434 1.98113 17.9434H21.9623Z" fill="#333333"/>
</svg>
