<svg width="24" height="24" viewBox="0 0 24 24" fill="none" xmlns="http://www.w3.org/2000/svg">
<path fill-rule="evenodd" clip-rule="evenodd" d="M14.8524 12L23.4092 3.44316C24.1969 2.65549 24.1969 1.37842 23.4092 0.590866C22.6216 -0.196805 21.3446 -0.196805 20.557 0.590866L12 9.14786L3.44296 0.590753C2.65529 -0.196918 1.37834 -0.196918 0.590669 0.590753C-0.19689 1.37842 -0.19689 2.65549 0.590669 3.44305L9.14766 11.9999L0.590669 20.5569C-0.19689 21.3446 -0.19689 22.6217 0.590669 23.4092C1.37834 24.1969 2.65529 24.1969 3.44296 23.4092L12 14.8522L20.557 23.4092C21.3445 24.1969 22.6216 24.1969 23.4092 23.4092C24.1969 22.6215 24.1969 21.3446 23.4092 20.5569L14.8524 12Z" fill="#333333"/>
</svg>
