<svg width="66" height="78" viewBox="0 0 66 78" fill="none" xmlns="http://www.w3.org/2000/svg">
<path d="M65.431 20.0756C65.391 17.9705 65.3528 15.9819 65.3528 14.0581C65.3528 12.5509 64.1312 11.3289 62.6237 11.3289C50.9522 11.3289 42.0658 7.97469 34.6587 0.772748C33.5991 -0.257764 31.9128 -0.257401 30.8536 0.772748C23.4471 7.97469 14.5622 11.3289 2.89147 11.3289C1.38427 11.3289 0.162355 12.5509 0.162355 14.0581C0.162355 15.9823 0.124511 17.9716 0.0841204 20.077C-0.28995 39.6669 -0.802292 66.4963 31.8622 77.8184C32.1519 77.9189 32.4539 77.9691 32.7559 77.9691C33.058 77.9691 33.3603 77.9189 33.6496 77.8184C66.3167 66.4959 65.8051 39.6658 65.431 20.0756ZM32.7563 72.3438C4.74217 62.1672 5.16572 39.874 5.54161 20.1811C5.56417 18.9992 5.58601 17.8537 5.60129 16.7308C16.5323 16.2694 25.2734 12.957 32.7563 6.43838C40.2399 12.957 48.9825 16.2697 59.9142 16.7308C59.9295 17.8533 59.9513 18.9981 59.9739 20.1793C60.3494 39.8729 60.7726 62.1668 32.7563 72.3438Z" fill="#5EAF28"/>
<path d="M42.1543 29.504L28.9822 42.6754L23.3613 37.0545C22.2955 35.9891 20.5674 35.9891 19.502 37.0545C18.4362 38.1207 18.4362 39.8484 19.502 40.9142L27.0525 48.4648C27.5853 48.9975 28.2839 49.2639 28.9822 49.2639C29.6805 49.2639 30.3791 48.9975 30.9119 48.4648L46.0133 33.3637C47.0795 32.2979 47.0795 30.5698 46.0137 29.5044C44.9482 28.4386 43.2201 28.4382 42.1543 29.504Z" fill="#5EAF28"/>
</svg>
