<svg width="78" height="77" viewBox="0 0 78 77" fill="none" xmlns="http://www.w3.org/2000/svg">
<path d="M70.3417 0.508301C66.2588 0.508301 62.9154 3.73305 62.7235 7.76932C54.8045 10.4845 41.6034 15.7631 21.1872 15.7631H17.7974C14.4129 15.7631 11.5376 17.9798 10.5432 21.037C4.56393 22.0698 0 27.2905 0 33.5605C0 39.8305 4.56393 45.051 10.5432 46.0838C11.3987 48.7137 13.6463 50.7196 16.4123 51.2295L19.6587 70.4268C20.2816 74.1094 23.4445 76.7825 27.1795 76.7825C31.8263 76.7825 35.3575 72.6067 34.5945 68.0292L31.9046 51.8896C46.204 53.2832 54.0678 56.3838 62.7235 59.3517C62.9154 63.3879 66.2588 66.6127 70.3417 66.6127C74.5474 66.6127 77.9691 63.191 77.9691 58.9853V8.13572C77.9691 3.92996 74.5474 0.508301 70.3417 0.508301ZM10.1699 40.7521C7.21031 39.7028 5.08505 36.8751 5.08505 33.5605C5.08505 30.2459 7.21031 27.418 10.1699 26.3688V40.7521ZM27.1794 71.6974C25.9345 71.6974 24.8802 70.8064 24.6725 69.5789L21.5915 51.3597C23.2773 51.3662 24.9778 51.4127 26.6846 51.5002L29.5788 68.8651C29.8259 70.3486 28.6839 71.6974 27.1794 71.6974ZM30.0012 46.6209C27.0464 46.3919 24.0932 46.2726 21.1873 46.2726H17.7974C16.3954 46.2728 15.2548 45.1322 15.2548 43.7303V23.3906C15.2548 21.9886 16.3954 20.848 17.7974 20.848H21.1873C24.0934 20.848 27.0466 20.7286 30.0012 20.4998V46.6209ZM62.7142 53.9727C55.9218 51.644 48.4022 48.7252 35.0861 47.1231V19.9977C48.276 18.4109 55.7152 15.5475 62.7142 13.148V53.9727ZM72.8842 58.9851C72.8842 60.387 71.7436 61.5276 70.3417 61.5276C68.9398 61.5276 67.7991 60.387 67.7991 58.9851C67.7991 58.3257 67.7991 8.84109 67.7991 8.13572C67.7991 6.7338 68.9398 5.59319 70.3417 5.59319C71.7436 5.59319 72.8842 6.7338 72.8842 8.13572V58.9851Z" fill="#5EAF28"/>
</svg>
