<svg width="94" height="61" viewBox="0 0 94 61" fill="none" xmlns="http://www.w3.org/2000/svg">
<path d="M93.3025 31.5977L82.6248 2.73574C82.237 1.68699 81.4638 0.852236 80.4478 0.385153C79.4319 -0.0819298 78.2951 -0.125788 77.2464 0.262351L25.1807 19.5242C24.1319 19.9122 23.2972 20.6854 22.8299 21.701C22.3628 22.7169 22.3191 23.8539 22.7071 24.9025L33.3848 53.7644C33.7725 54.8131 34.5457 55.6479 35.5618 56.1152C36.1191 56.3715 36.7128 56.5002 37.3086 56.5002C37.7987 56.5002 38.2899 56.4132 38.7634 56.238L90.8293 36.9761H90.8294C92.9936 36.1751 94.1032 33.7624 93.3025 31.5977ZM74.3845 5.78439L58.2345 28.8725L30.9465 21.8543L74.3845 5.78439ZM36.5559 50.2728L27.2941 25.2374L48.7444 30.7547L36.5559 50.2728ZM41.0913 50.9135L52.9972 31.8482L58.5967 33.2886C58.7705 33.3326 58.9463 33.3556 59.1178 33.3556C59.7918 33.3556 60.4365 33.0291 60.8341 32.4619L64.1478 27.7208L85.5958 34.449L41.0913 50.9135ZM66.6659 24.124L79.3596 5.97352L88.625 31.0124L66.6659 24.124Z" fill="#5EAF28"/>
<path d="M24.3847 54.3377C23.9838 53.2535 22.7791 52.7002 21.6957 53.1009L13.8082 56.0189C12.724 56.4202 12.1705 57.6241 12.5715 58.7081C12.8839 59.5529 13.6836 60.0754 14.5346 60.0754C14.7757 60.0754 15.0213 60.0333 15.2607 59.9447L23.1477 57.0267C24.2323 56.626 24.7858 55.4219 24.3847 54.3377Z" fill="#5EAF28"/>
<path d="M13.7099 34.9072C13.3086 33.823 12.1046 33.2699 11.0207 33.6704L6.15199 35.4717C5.0678 35.873 4.51428 37.0767 4.91521 38.1609C5.2277 39.0055 6.02755 39.5282 6.87839 39.5282C7.11942 39.5282 7.36502 39.4861 7.60441 39.3975L12.4732 37.5962C13.5573 37.1955 14.111 35.9914 13.7099 34.9072Z" fill="#5EAF28"/>
<path d="M7.67423 50.7619C7.27293 49.6777 6.06886 49.1241 4.98503 49.5251L1.36733 50.8635C0.283131 51.2648 -0.270389 52.4686 0.130543 53.5527C0.443028 54.3973 1.2427 54.9199 2.09372 54.9199C2.33475 54.9199 2.58035 54.8779 2.81974 54.7893L6.43745 53.4509C7.52182 53.0499 8.07534 51.846 7.67423 50.7619Z" fill="#5EAF28"/>
</svg>
