<svg width="78" height="39" viewBox="0 0 78 39" fill="none" xmlns="http://www.w3.org/2000/svg">
<path d="M73.096 7.3096H68.2229C68.2229 3.27957 64.9434 0 60.9133 0H7.3096C3.27957 0 0 3.27957 0 7.3096V31.6749C0 35.705 3.27957 38.9845 7.3096 38.9845H60.9133C64.9434 38.9845 68.2229 35.705 68.2229 31.6749H73.096C75.7859 31.6749 77.9691 29.4918 77.9691 26.8019V12.1827C77.9691 9.49517 75.7859 7.3096 73.096 7.3096ZM63.3499 31.6749C63.3499 33.0199 62.2583 34.1115 60.9133 34.1115H7.3096C5.96463 34.1115 4.87307 33.0199 4.87307 31.6749V7.3096C4.87307 5.96463 5.96463 4.87307 7.3096 4.87307H60.9133C62.2583 4.87307 63.3499 5.96463 63.3499 7.3096V31.6749ZM73.096 26.8019H68.2229V12.1827H73.096V26.8019ZM46.0383 11.9268C45.4365 10.7256 43.8527 9.74614 42.5126 9.74614H12.1827C10.8426 9.74614 9.74614 10.8426 9.74614 12.1827V26.8019C9.74614 28.142 10.8426 29.2384 12.1827 29.2384H52.2563C53.5964 29.2384 54.2031 28.2589 53.6037 27.0577L46.0383 11.9268Z" fill="#5EAF28"/>
</svg>
