<svg width="30" height="27" viewBox="0 0 30 27" fill="none" xmlns="http://www.w3.org/2000/svg">
<path d="M20.2584 13.7304C18.9007 11.6123 16.5578 10.3311 14.0423 10.3311C11.5271 10.3311 9.18419 11.6122 7.82659 13.7304L4.08903 19.5608C3.06544 21.1579 3.20836 23.237 4.44018 24.6787C5.67359 26.1205 7.70522 26.5849 9.44261 25.8214L9.44378 25.8203C12.3743 24.5323 15.7108 24.5323 18.6422 25.8214C20.3785 26.5849 22.4102 26.1211 23.6437 24.6793C24.8765 23.2375 25.0195 21.1579 23.9959 19.5608L20.2584 13.7304Z" fill="#424037"/>
<path d="M4.81635 13.1685C6.53447 12.5083 7.29755 10.3373 6.52156 8.32145C5.74507 6.30604 3.72329 5.20656 2.00707 5.86779C0.290301 6.52792 -0.471682 8.69849 0.30291 10.7148C1.07977 12.7296 3.10166 13.8296 4.81635 13.1685Z" fill="#424037"/>
<path d="M11.5646 9.51784C13.8025 9.51784 15.6175 7.38687 15.6175 4.75944C15.6175 2.13091 13.8025 0 11.5646 0C9.32722 0 7.51221 2.13085 7.51221 4.75944C7.51221 7.38687 9.32722 9.51784 11.5646 9.51784Z" fill="#424037"/>
<path d="M19.1208 10.9321C21.2445 11.6378 23.6393 10.1877 24.4681 7.69431C25.2975 5.20056 24.2465 2.60581 22.124 1.90014C20.0002 1.19447 17.6055 2.64456 16.7772 5.13837C15.9484 7.63218 16.9983 10.2264 19.1208 10.9321Z" fill="#424037"/>
<path d="M28.7467 10.2167C27.2666 9.1232 25.0262 9.6428 23.7405 11.3795C22.4564 13.1166 22.6139 15.4116 24.0912 16.5052C25.568 17.5993 27.811 17.0792 29.0974 15.3429C30.3815 13.6059 30.2235 11.3104 28.7467 10.2167Z" fill="#424037"/>
</svg>
