<svg width="24" height="24" viewBox="0 0 24 24" fill="none" xmlns="http://www.w3.org/2000/svg">
<path d="M23.9886 18.9283C24.0394 19.3179 23.9207 19.6567 23.6329 19.9446L20.2537 23.2982C20.1013 23.4676 19.9023 23.6117 19.6567 23.7301C19.4111 23.8487 19.1698 23.925 18.9327 23.9588C18.9158 23.9588 18.8648 23.9632 18.7801 23.9716C18.6955 23.98 18.5854 23.9844 18.4499 23.9844C18.128 23.9844 17.6071 23.9293 16.8873 23.8192C16.1674 23.709 15.2867 23.438 14.2451 23.0062C13.2032 22.5742 12.0218 21.9263 10.7007 21.0625C9.37955 20.1988 7.97364 19.013 6.48309 17.5055C5.29743 16.3368 4.31502 15.2189 3.53587 14.1518C2.75671 13.0847 2.13001 12.098 1.65574 11.1918C1.18143 10.2857 0.825732 9.46415 0.588598 8.72735C0.351465 7.99054 0.190553 7.35536 0.105863 6.82181C0.0211726 6.28826 -0.0127036 5.86905 0.00423452 5.56416C0.0211726 5.25927 0.0296416 5.08989 0.0296416 5.05602C0.0635178 4.81888 0.139739 4.57752 0.258306 4.33191C0.376872 4.08631 0.520846 3.88729 0.690227 3.73485L4.06937 0.3557C4.30651 0.118567 4.57752 0 4.8824 0C5.1026 0 5.29739 0.0635178 5.46677 0.190553C5.63615 0.317589 5.78012 0.474266 5.89869 0.660585L8.61725 5.81823C8.76969 6.08924 8.81204 6.38566 8.74428 6.70748C8.67653 7.0293 8.53256 7.30031 8.31236 7.52051L7.06742 8.76546C7.03354 8.79933 7.0039 8.85438 6.97849 8.9306C6.95308 9.00683 6.94038 9.07034 6.94038 9.12116C7.00813 9.47686 7.16057 9.88337 7.39771 10.3407C7.60096 10.7472 7.91432 11.2427 8.33777 11.827C8.76122 12.4114 9.36252 13.0846 10.1417 13.8468C10.9039 14.6261 11.5814 15.2315 12.1742 15.6635C12.767 16.0953 13.2626 16.413 13.6606 16.6163C14.0587 16.8195 14.3635 16.9423 14.5752 16.9845L14.8927 17.0481C14.9266 17.0481 14.9818 17.0354 15.0579 17.01C15.1341 16.9845 15.1892 16.9549 15.2231 16.921L16.6713 15.4474C16.9763 15.1764 17.3319 15.0409 17.7384 15.0409C18.0264 15.0409 18.255 15.0917 18.4244 15.1934H18.4497L23.3533 18.0898C23.7091 18.3102 23.9208 18.5895 23.9886 18.9283Z" fill="#5EAF28"/>
</svg>
